{"accessors":[{"name":"Model001_4_Material11_1.0_0.0_0.0_1_0_positions","componentType":5126,"count":2294,"min":[-0.5390409827232361,0.9358459711074829,-0.08682789653539658],"max":[0.5606340169906616,1.167646050453186,0.037247899919748306],"type":"VEC3","bufferView":0,"byteOffset":0},{"name":"Model001_4_Material11_1.0_0.0_0.0_1_0_normals","componentType":5126,"count":2294,"min":[-0.9998037219047546,-0.9987791776657104,-0.9999860525131226],"max":[1,0.9948039054870605,0.9988691210746765],"type":"VEC3","bufferView":1,"byteOffset":0},{"name":"Model001_4_Material11_1.0_0.0_0.0_1_0_texcoords","componentType":5126,"count":2294,"min":[0.0071000000461936,-0.9290000200271606],"max":[0.986299991607666,-0.004900000058114529],"type":"VEC2","bufferView":2,"byteOffset":0},{"name":"Model001_4_Material11_1.0_0.0_0.0_1_0_indices","componentType":5123,"count":8346,"min":[0],"max":[2293],"type":"SCALAR","bufferView":3,"byteOffset":0},{"name":"Model001_4_Material12_1.0_0.0_0.0_1_0_positions","componentType":5126,"count":4289,"min":[-0.469217985868454,0.04716401919722557,-0.176105797290802],"max":[0.4964359998703003,1.5488959550857544,0.11682020127773285],"type":"VEC3","bufferView":0,"byteOffset":27528},{"name":"Model001_4_Material12_1.0_0.0_0.0_1_0_normals","componentType":5126,"count":4289,"min":[-0.9999389052391052,-0.9999457597732544,-0.9999318718910217],"max":[0.9996775388717651,0.9993970990180969,0.9999878406524658],"type":"VEC3","bufferView":1,"byteOffset":27528},{"name":"Model001_4_Material12_1.0_0.0_0.0_1_0_texcoords","componentType":5126,"count":4289,"min":[0.00338363996706903,-0.9966599941253662],"max":[0.9985349774360657,-0.0019529999699443579],"type":"VEC2","bufferView":2,"byteOffset":18352},{"name":"Model001_4_Material12_1.0_0.0_0.0_1_0_indices","componentType":5123,"count":15387,"min":[0],"max":[4288],"type":"SCALAR","bufferView":3,"byteOffset":16692},{"name":"Model001_4_Material13_1.0_0.0_0.0_1_0_positions","componentType":5126,"count":2892,"min":[-0.09780830144882202,1.4949760437011719,-0.1344268023967743],"max":[0.09780830144882202,1.7982059717178345,0.08781830221414566],"type":"VEC3","bufferView":0,"byteOffset":78996},{"name":"Model001_4_Material13_1.0_0.0_0.0_1_0_normals","componentType":5126,"count":2892,"min":[-1,-0.9999879598617554,-0.9993028044700623],"max":[1,0.9992902278900146,0.9988691806793213],"type":"VEC3","bufferView":1,"byteOffset":78996},{"name":"Model001_4_Material13_1.0_0.0_0.0_1_0_texcoords","componentType":5126,"count":2892,"min":[0.0048675499856472015,-0.9986500144004822],"max":[0.9951170086860657,-0.004883000161498785],"type":"VEC2","bufferView":2,"byteOffset":52664},{"name":"Model001_4_Material13_1.0_0.0_0.0_1_0_indices","componentType":5123,"count":12942,"min":[0],"max":[2891],"type":"SCALAR","bufferView":3,"byteOffset":47468},{"name":"Model001_5_Material14_1.0_0.0_0.0_1_0_positions","componentType":5126,"count":280,"min":[-0.038703300058841705,1.5742859840393066,0.011609099805355072],"max":[0.03943270072340965,1.5985560417175293,0.0653965026140213],"type":"VEC3","bufferView":0,"byteOffset":113700},{"name":"Model001_5_Material14_1.0_0.0_0.0_1_0_normals","componentType":5126,"count":280,"min":[-0.9962161183357239,-0.9981954097747803,-0.9936701655387878],"max":[0.9962161779403687,0.9998114109039307,0.9875780940055847],"type":"VEC3","bufferView":1,"byteOffset":113700},{"name":"Model001_5_Material14_1.0_0.0_0.0_1_0_texcoords","componentType":5126,"count":280,"min":[0.0013720899587497115,-0.9965180158615112],"max":[0.9982230067253113,-0.0010260000126436353],"type":"VEC2","bufferView":2,"byteOffset":75800},{"name":"Model001_5_Material14_1.0_0.0_0.0_1_0_indices","componentType":5123,"count":1242,"min":[0],"max":[279],"type":"SCALAR","bufferView":3,"byteOffset":73352}],"asset":{"generator":"obj2gltf","version":"2.0"},"buffers":[{"name":"maya","byteLength":387996,"uri":"data:application/octet-stream;base64,"}],"bufferViews":[{"name":"bufferView_0","buffer":0,"byteLength":117060,"byteOffset":0,"byteStride":12,"target":34962},{"name":"bufferView_1","buffer":0,"byteLength":117060,"byteOffset":117060,"byteStride":12,"target":34962},{"name":"bufferView_2","buffer":0,"byteLength":78040,"byteOffset":234120,"byteStride":8,"target":34962},{"name":"bufferView_3","buffer":0,"byteLength":75836,"byteOffset":312160,"target":34963}],"materials":[{"name":"Model001_Material001","pbrMetallicRoughness":{"baseColorFactor":[0.5,0.5,0.5,1],"metallicFactor":0,"roughnessFactor":1},"emissiveFactor":[0,0,0],"alphaMode":"OPAQUE","doubleSided":false},{"name":"Model001_Material002","pbrMetallicRoughness":{"baseColorFactor":[0.5,0.5,0.5,1],"metallicFactor":0,"roughnessFactor":1},"emissiveFactor":[0,0,0],"alphaMode":"OPAQUE","doubleSided":false},{"name":"Model001_Material003","pbrMetallicRoughness":{"baseColorFactor":[0.5,0.5,0.5,1],"metallicFactor":0,"roughnessFactor":1},"emissiveFactor":[0,0,0],"alphaMode":"OPAQUE","doubleSided":false},{"name":"Model001_Material004","pbrMetallicRoughness":{"baseColorFactor":[0.5,0.5,0.5,1],"metallicFactor":0,"roughnessFactor":1},"emissiveFactor":[0,0,0],"alphaMode":"OPAQUE","doubleSided":false}],"meshes":[{"name":"Model001_4_Material11_1.0_0.0_0.0_1","primitives":[{"attributes":{"POSITION":0,"NORMAL":1,"TEXCOORD_0":2},"indices":3,"material":0,"mode":4}]},{"name":"Model001_4_Material12_1.0_0.0_0.0_1","primitives":[{"attributes":{"POSITION":4,"NORMAL":5,"TEXCOORD_0":6},"indices":7,"material":1,"mode":4}]},{"name":"Model001_4_Material13_1.0_0.0_0.0_1","primitives":[{"attributes":{"POSITION":8,"NORMAL":9,"TEXCOORD_0":10},"indices":11,"material":2,"mode":4}]},{"name":"Model001_5_Material14_1.0_0.0_0.0_1","primitives":[{"attributes":{"POSITION":12,"NORMAL":13,"TEXCOORD_0":14},"indices":15,"material":3,"mode":4}]}],"nodes":[{"name":"Model001_4_Material11_1.0_0.0_0.0","mesh":0},{"name":"Model001_4_Material12_1.0_0.0_0.0","mesh":1},{"name":"Model001_4_Material13_1.0_0.0_0.0","mesh":2},{"name":"Model001_5_Material14_1.0_0.0_0.0","mesh":3}],"scene":0,"scenes":[{"nodes":[0,1,2,3]}]}